<?xml version="1.0" standalone="no"?>
<!DOCTYPE svg PUBLIC "-//W3C//DTD SVG 20010904//EN"
 "http://www.w3.org/TR/2001/REC-SVG-20010904/DTD/svg10.dtd">
<svg version="1.0" xmlns="http://www.w3.org/2000/svg"
 width="192.000000pt" height="192.000000pt" viewBox="0 0 192.000000 192.000000"
 preserveAspectRatio="xMidYMid meet">
<metadata>
Created by potrace 1.14, written by Peter Selinger 2001-2017
</metadata>
<g transform="translate(0.000000,192.000000) scale(0.100000,-0.100000)"
fill="#000000" stroke="none">
<path d="M420 1910 c-5 -3 -11 -17 -14 -30 -3 -14 -7 -34 -10 -45 -2 -11 -12
-51 -21 -90 -9 -38 -19 -81 -21 -95 -3 -14 -7 -33 -10 -42 -3 -9 -7 -25 -9
-35 -2 -10 -13 -61 -25 -113 -12 -52 -23 -102 -25 -110 -2 -8 -10 -44 -19 -80
-8 -36 -27 -117 -42 -180 -14 -63 -32 -142 -40 -175 -8 -33 -16 -69 -18 -80
-3 -11 -30 -127 -60 -258 -31 -130 -58 -247 -60 -260 -2 -12 -14 -60 -25 -107
-25 -102 -25 -100 -6 -100 8 0 15 -9 15 -20 0 -11 6 -20 14 -20 9 0 12 -7 9
-18 -4 -16 3 -18 64 -17 37 0 73 3 79 7 9 6 21 43 24 78 1 3 5 23 10 45 6 22
17 74 26 115 14 71 50 227 60 260 3 13 34 15 206 15 l202 0 23 -100 c32 -144
44 -198 47 -215 11 -70 31 -130 43 -130 7 0 12 -3 11 -8 -1 -4 4 -21 11 -38
14 -30 15 -30 93 -30 46 0 78 5 78 11 0 5 -5 27 -10 47 -6 20 -22 90 -36 155
-14 65 -27 127 -30 138 -6 26 -24 108 -35 164 -5 23 -13 59 -18 80 -6 20 -12
48 -15 64 -3 15 -7 35 -10 45 -3 9 -7 28 -10 42 -8 47 -76 355 -87 394 -6 22
-13 51 -14 65 -2 14 -23 109 -45 211 -23 102 -44 196 -46 210 -3 14 -7 33 -10
42 -5 17 -10 42 -19 89 -6 35 -34 89 -46 89 -6 0 -8 4 -4 9 3 5 0 13 -7 17
-14 9 -155 12 -168 4z m113 -460 c3 -14 8 -32 11 -40 3 -8 8 -31 11 -50 3 -19
8 -44 11 -55 16 -74 34 -157 43 -200 5 -27 19 -93 30 -145 12 -52 21 -97 21
-100 0 -3 -61 -5 -136 -5 l-136 -1 6 36 c6 39 10 54 25 120 5 25 12 56 15 70
10 49 15 72 22 92 3 11 7 30 9 41 2 18 27 132 52 245 6 27 10 25 16 -8z"/>
<path d="M1111 1910 c-4 -3 -8 -409 -8 -902 0 -741 3 -898 14 -898 7 0 13 -9
13 -20 0 -11 5 -20 10 -20 6 0 10 -7 10 -15 0 -17 2 -17 88 -19 l62 -2 0 76
c1 41 0 224 0 406 0 260 2 333 12 336 7 2 121 3 253 2 132 -1 248 0 258 3 15
4 17 18 17 109 0 57 -4 104 -9 104 -5 0 -11 10 -13 23 -2 12 -9 21 -16 20 -7
-2 -12 7 -12 20 l0 22 -245 -1 -245 -2 0 234 0 234 43 0 c23 1 161 2 306 3
l265 2 1 95 c1 95 -8 138 -32 153 -7 4 -13 16 -13 25 0 16 -29 17 -376 17
-207 0 -379 -2 -383 -5z"/>
</g>
</svg>
